HIERARCHY
ROOT Hips
{
	OFFSET -14.64140 90.27770 -84.91600
	CHANNELS 6 Xposition Yposition Zposition Zrotation Xrotation Yrotation
	JOINT Spine
	{
		OFFSET 0.00000 13.20850 -1.60436
		CHANNELS 3 Zrotation Xrotation Yrotation
		JOINT Spine1
		{
			OFFSET 0.00000 8.61716 0.00000
			CHANNELS 3 Zrotation Xrotation Yrotation
			JOINT Spine2
			{
				OFFSET 0.00000 8.61717 0.00000
				CHANNELS 3 Zrotation Xrotation Yrotation
				JOINT Spine3
				{
					OFFSET 0.00000 8.61717 0.00000
					CHANNELS 3 Zrotation Xrotation Yrotation
					JOINT Neck
					{
						OFFSET 0.00000 11.07920 1.10792
						CHANNELS 3 Zrotation Xrotation Yrotation
						JOINT Neck1
						{
							OFFSET 0.00000 7.08032 0.00000
							CHANNELS 3 Zrotation Xrotation Yrotation
							JOINT Head
							{
								OFFSET 0.00000 7.08031 0.00000
								CHANNELS 3 Zrotation Xrotation Yrotation
								End site
								{
									OFFSET 0.00000 0.00000 0.00000
								}
							}
						}
					}
					JOINT RightShoulder
					{
						OFFSET -0.01000 7.91373 5.19711
						CHANNELS 3 Zrotation Xrotation Yrotation
						JOINT RightArm
						{
							OFFSET -18.41580 0.00000 0.00000
							CHANNELS 3 Zrotation Xrotation Yrotation
							JOINT RightForeArm
							{
								OFFSET -29.11090 0.00000 0.00000
								CHANNELS 3 Zrotation Xrotation Yrotation
								JOINT RightHand
								{
									OFFSET -24.65040 0.00000 0.00000
									CHANNELS 3 Zrotation Xrotation Yrotation
									JOINT RightHandThumb1
									{
										OFFSET -5.35114 -0.85590 3.97906
										CHANNELS 3 Zrotation Xrotation Yrotation
										JOINT RightHandThumb2
										{
											OFFSET -4.52789 0.00000 0.00000
											CHANNELS 3 Zrotation Xrotation Yrotation
											JOINT RightHandThumb3
											{
												OFFSET -2.46976 0.00000 0.00000
												CHANNELS 3 Zrotation Xrotation Yrotation
												End site
												{
													OFFSET 0.00000 0.00000 0.00000
												}
											}
										}
									}
									JOINT RightHandIndex1
									{
										OFFSET -14.26970 0.00000 2.88139
										CHANNELS 3 Zrotation Xrotation Yrotation
										JOINT RightHandIndex2
										{
											OFFSET -5.48836 0.00000 0.00000
											CHANNELS 3 Zrotation Xrotation Yrotation
											JOINT RightHandIndex3
											{
												OFFSET -3.01859 0.00000 0.00000
												CHANNELS 3 Zrotation Xrotation Yrotation
												End site
												{
													OFFSET 0.00000 0.00000 0.00000
												}
											}
										}
									}
									JOINT RightHandMiddle1
									{
										OFFSET -14.26970 0.00000 -0.09147
										CHANNELS 3 Zrotation Xrotation Yrotation
										JOINT RightHandMiddle2
										{
											OFFSET -6.17441 0.00000 0.00000
											CHANNELS 3 Zrotation Xrotation Yrotation
											JOINT RightHandMiddle3
											{
												OFFSET -3.56743 0.00000 0.00000
												CHANNELS 3 Zrotation Xrotation Yrotation
												End site
												{
													OFFSET 0.00000 0.00000 0.00000
												}
											}
										}
									}
									JOINT RightHandRing1
									{
										OFFSET -12.69180 0.00000 -3.06433
										CHANNELS 3 Zrotation Xrotation Yrotation
										JOINT RightHandRing2
										{
											OFFSET -5.62556 0.00000 0.00000
											CHANNELS 3 Zrotation Xrotation Yrotation
											JOINT RightHandRing3
											{
												OFFSET -3.56744 0.00000 0.00000
												CHANNELS 3 Zrotation Xrotation Yrotation
												End site
												{
													OFFSET 0.00000 0.00000 0.00000
												}
											}
										}
									}
									JOINT RightHandPinky1
									{
										OFFSET -11.11390 0.00000 -6.03719
										CHANNELS 3 Zrotation Xrotation Yrotation
										JOINT RightHandPinky2
										{
											OFFSET -4.52789 0.00000 0.00000
											CHANNELS 3 Zrotation Xrotation Yrotation
											JOINT RightHandPinky3
											{
												OFFSET -2.46976 0.00000 0.00000
												CHANNELS 3 Zrotation Xrotation Yrotation
												End site
												{
													OFFSET 0.00000 0.00000 0.00000
												}
											}
										}
									}
								}
							}
						}
					}
					JOINT LeftShoulder
					{
						OFFSET 0.01000 7.91373 5.19711
						CHANNELS 3 Zrotation Xrotation Yrotation
						JOINT LeftArm
						{
							OFFSET 18.41580 0.00000 0.00000
							CHANNELS 3 Zrotation Xrotation Yrotation
							JOINT LeftForeArm
							{
								OFFSET 29.11090 0.00000 0.00000
								CHANNELS 3 Zrotation Xrotation Yrotation
								JOINT LeftHand
								{
									OFFSET 24.65040 0.00000 0.00000
									CHANNELS 3 Zrotation Xrotation Yrotation
									JOINT LeftHandThumb1
									{
										OFFSET 5.35114 -0.85590 3.97906
										CHANNELS 3 Zrotation Xrotation Yrotation
										JOINT LeftHandThumb2
										{
											OFFSET 4.52789 0.00000 0.00000
											CHANNELS 3 Zrotation Xrotation Yrotation
											JOINT LeftHandThumb3
											{
												OFFSET 2.46977 0.00000 0.00000
												CHANNELS 3 Zrotation Xrotation Yrotation
												End site
												{
													OFFSET 0.00000 0.00000 0.00000
												}
											}
										}
									}
									JOINT LeftHandIndex1
									{
										OFFSET 14.26970 0.00000 2.88139
										CHANNELS 3 Zrotation Xrotation Yrotation
										JOINT LeftHandIndex2
										{
											OFFSET 5.48836 0.00000 0.00000
											CHANNELS 3 Zrotation Xrotation Yrotation
											JOINT LeftHandIndex3
											{
												OFFSET 3.01859 0.00000 0.00000
												CHANNELS 3 Zrotation Xrotation Yrotation
												End site
												{
													OFFSET 0.00000 0.00000 0.00000
												}
											}
										}
									}
									JOINT LeftHandMiddle1
									{
										OFFSET 14.26970 0.00000 -0.09147
										CHANNELS 3 Zrotation Xrotation Yrotation
										JOINT LeftHandMiddle2
										{
											OFFSET 6.17440 0.00000 0.00000
											CHANNELS 3 Zrotation Xrotation Yrotation
											JOINT LeftHandMiddle3
											{
												OFFSET 3.56744 0.00000 0.00000
												CHANNELS 3 Zrotation Xrotation Yrotation
												End site
												{
													OFFSET 0.00000 0.00000 0.00000
												}
											}
										}
									}
									JOINT LeftHandRing1
									{
										OFFSET 12.69180 0.00000 -3.06433
										CHANNELS 3 Zrotation Xrotation Yrotation
										JOINT LeftHandRing2
										{
											OFFSET 5.62556 0.00000 0.00000
											CHANNELS 3 Zrotation Xrotation Yrotation
											JOINT LeftHandRing3
											{
												OFFSET 3.56744 0.00000 0.00000
												CHANNELS 3 Zrotation Xrotation Yrotation
												End site
												{
													OFFSET 0.00000 0.00000 0.00000
												}
											}
										}
									}
									JOINT LeftHandPinky1
									{
										OFFSET 11.11390 0.00000 -6.03719
										CHANNELS 3 Zrotation Xrotation Yrotation
										JOINT LeftHandPinky2
										{
											OFFSET 4.52789 0.00000 0.00000
											CHANNELS 3 Zrotation Xrotation Yrotation
											JOINT LeftHandPinky3
											{
												OFFSET 2.46976 0.00000 0.00000
												CHANNELS 3 Zrotation Xrotation Yrotation
												End site
												{
													OFFSET 0.00000 0.00000 0.00000
												}
											}
										}
									}
								}
							}
						}
					}
					JOINT pCube4
					{
						OFFSET 0.00000 10.91090 1.10792
						CHANNELS 3 Zrotation Xrotation Yrotation
						End site
						{
							OFFSET 0.00000 0.00000 0.00000
						}
					}
				}
			}
		}
	}
	JOINT RightUpLeg
	{
		OFFSET -9.98441 0.00000 0.00000
		CHANNELS 3 Zrotation Xrotation Yrotation
		JOINT RightLeg
		{
			OFFSET 0.00000 -42.11790 0.00000
			CHANNELS 3 Zrotation Xrotation Yrotation
			JOINT RightFoot
			{
				OFFSET 0.00000 -45.00020 -0.00001
				CHANNELS 3 Zrotation Xrotation Yrotation
				JOINT RightForeFoot
				{
					OFFSET 0.00000 -3.74820 0.00000
					CHANNELS 3 Zrotation Xrotation Yrotation
					JOINT RightToeBase
					{
						OFFSET 0.00000 0.06325 14.43120
						CHANNELS 3 Zrotation Xrotation Yrotation
						End site
						{
							OFFSET 0.00000 0.00000 0.00000
						}
					}
				}
			}
		}
	}
	JOINT LeftUpLeg
	{
		OFFSET 9.98441 0.00000 0.00000
		CHANNELS 3 Zrotation Xrotation Yrotation
		JOINT LeftLeg
		{
			OFFSET 0.00000 -42.11800 0.00000
			CHANNELS 3 Zrotation Xrotation Yrotation
			JOINT LeftFoot
			{
				OFFSET 0.00000 -45.00070 0.00000
				CHANNELS 3 Zrotation Xrotation Yrotation
				JOINT LeftForeFoot
				{
					OFFSET 0.00000 -3.74824 0.00000
					CHANNELS 3 Zrotation Xrotation Yrotation
					JOINT LeftToeBase
					{
						OFFSET 0.00000 0.06325 14.43110
						CHANNELS 3 Zrotation Xrotation Yrotation
						End site
						{
							OFFSET 0.00000 0.00000 0.00000
						}
					}
				}
			}
		}
	}
}
MOTION
Frames: 4
Frame Time: 0.050000
-0.036706457529549597 0.04279578786500514 -0.03509333889627055 0.04063410998235931 0.021716911189262212 0.01579517109134346 -1.9593863115810248 1.1808863128801468 -1.0029077379948623 -0.9325503977118006 3.733097965698419 0.32666701355846317 -1.160604232671884 -1.4617153611242626 -1.009748186713482 0.6143195371786081 0.35510571186935075 -0.7944342690409097 0.6008918685510493 11.298477456634767 -2.097874234929198 0.4149789726717872 -0.9541054418176722 -6.155848553190781 1.1153950906614232 -16.54461613347345 -0.5710557557470212 -3.01285978835944 1.2711482263142744 -15.344035559225782 73.192450770122 19.423369768311034 0.909940276933226 1.4192802656388714 5.458392942136914 44.831871406071194 21.308808415142796 -0.060809010596551485 -4.360029377605196 4.501782053896154 -0.08940525939961211 -1.639463242246695 0.03560085877527458 0.01605257413580366 -56.19691025916976 0.03659679892396195 -0.023321255973446763 -56.24435045655709 -38.781975657136286 -0.04370976753942714 -0.01308861371303463 -0.03750259877521408 -0.005312357173272558 -0.0355345802639788 0.03381235181577707 0.025078956204920243 0.006883393397334534 -36.7276253907574 0.0056023724085056716 0.009874253306046814 -0.006410688033842982 -0.006811504058347318 0.040674942891560574 -0.024657053756750605 0.021313185798141586 -0.040006028285260994 -19.776795771990646 0.021919603316349026 -0.04400484471751252 -0.03312371276772728 -0.01748661022622709 -0.02736009393204149 -0.01997009792221643 -0.03505616299637997 -0.00889245055392999 24.099763684929 -0.04502071852667003 -0.01563318374377434 28.88063884609591 0.04994340397541641 0.014453829529783444 28.88413978487622 -0.01234338966403889 -0.021916474327951057 3.0029740410103676 0.945386631524254 13.030138054876042 -69.39533254894613 28.624563374801248 -5.189565376485836 4.145572809743743 -7.9969944673885704 -49.07036048032099 -12.064534079470706 2.43069398130214 -0.10593457639999884 -0.49230053100095583 0.11179442624562831 -8.150580704487622 0.0181433356014381 -0.03403838991143588 44.56455688112766 -0.040077305563913576 0.039385695222989986 44.564859509982774 12.440164730146565 0.024207133088840652 -0.0030784155017485578 0.006229221882052981 0.011286535726932381 -0.01101194631300549 -0.00811489402064191 0.04136996346122829 0.006731093003719361 11.107247836387163 -0.0442903277355562 0.03171045394721342 -0.020184352943475373 0.000701721870060146 -0.038467948675510226 -0.037597766464821276 0.03748708266029099 -0.0314636486521451 4.767510055488823 0.04646102753948767 0.01867071280476921 -0.02595367651566704 -0.040109095681142425 -0.034067304766561876 0.01785571007095284 -0.04594982053298522 0.026279538027326008 -5.559860444417184 -0.01043932596661007 0.02291798132982254 -6.737836711210311 0.018551115475700306 0.043075295391970185 -6.683760216489795 -0.03236570483525909 0.02212053834454412 -0.028321609895576222 0.0016043045307935972 -0.03495800549435607 8.027801342873124 3.5009224403811112 -19.23999403485964 -0.0334915403272762 10.369507595137238 0.054144129937799365 -5.670813543131482 -15.636951704964615 3.1796923935216377 -0.0026770976579704583 0.004029096755380789 -0.04970823733331173 0.04305709498305594 4.658199477686755 -0.04933832977800988 12.423414845063977 -8.211269406740932 6.911171111813885 0.031075540751392888 46.373018771373324 0.0470430526403077 -4.358007368496724 -14.73778725782832 -3.865147692951421 0.03492007788408369 -0.015522340510689557 0.0412690259153507 -0.046386459733196626 -10.767772229995249 -0.009862592172025406 
0.020190665398939812 -0.035008289698075006 -0.02869356076683915 -0.00500986889801008 -0.02322744387311896 -0.030736595131534566 -1.9883322780741155 1.2595269452387814 -1.0190287175595807 -0.9267119033396082 3.694764490198797 0.3850486296649645 -1.1462253253864647 -1.4079659683195465 -1.066892072536287 0.46585939764470785 0.3524414496153022 -0.7790192789697187 0.4210415023260902 11.200568290656951 -1.8237842752053646 0.35444244174469897 -1.0171948078250015 -5.391685649299779 1.0812356875753946 -16.569578525137874 -0.49981516546346094 -2.9824223563516443 1.2769455102272382 -15.272270359531795 73.40865921843556 19.295903806859435 0.6009782871109053 1.7483129001537132 5.662149693247612 44.63151994316113 21.63919067361297 -0.0783176404669202 -4.207705056826012 4.5593815420798975 -0.14446805146020622 -1.6153736991370489 0.027885132125379398 -0.03211476215861086 -56.1851060107138 -0.014394731078630794 -0.007197363236053634 -56.23879515031791 -38.74176849891351 -0.01835117228125119 -0.03426204612393323 0.0333273980330351 0.03476230742233039 0.019654211012737295 0.046778316903071784 -0.011985416428941176 0.00836906457948417 -36.7360275735256 -0.037129827242370565 -0.010074089047134712 -0.013716631856760492 -0.022415287952412488 -0.046403937851862614 0.013025554896502246 0.009507068478780857 0.040388582079281136 -19.730326815839355 0.03406506746902789 -0.01906222652708578 -0.0196926691005801 -0.02047901754318325 -0.025579256821157605 0.014923922997588032 -0.0034670605363935573 -0.027671621249342505 24.048821152055506 -0.021466496157371524 -0.03366567641136302 28.88115465575839 0.01595723280206386 -0.01741557815854613 28.90989674951082 -0.04223156112382979 -0.0008779765017131613 3.206815179241119 1.0351847130195935 13.031371079500916 -69.29350692402812 28.634685052732394 -5.531992249898209 3.3096486877587736 -7.4500716892822485 -49.0344548229959 -12.474741467598474 2.418969527935794 -0.19378282452517792 -0.46042433492027185 0.05791845881670688 -8.134319069075609 -0.01863208053864252 -0.023908863924074115 44.52309607176069 -0.008029644798224694 -0.015473973519200672 44.59783687917087 12.429460138086151 -0.009406999220907828 0.04983781602224458 -0.01748423770819574 -0.04717562563802247 -0.04417912331889526 0.018744282695069392 0.011666137669740223 -0.026969267197484215 11.085392517629815 -0.033819711420132285 -0.04375205448654701 -0.0261312947429984 -0.023313637802715115 -0.047558669739209705 0.032690861897835516 -0.019624280536089427 -0.00795073265906986 4.7251087426585805 -0.00461543548022836 -0.00375880532424087 -0.00046150664027678464 0.004107851999730542 0.02524180623367556 0.019263867157097818 -0.04034021967267837 -0.04912692460436992 -5.594340646317964 -0.043529472108756115 -0.01148527040917109 -6.770522242947109 -0.04190748203392603 0.021327566842307924 -6.762838541096988 0.03627955260568785 -0.038042941675341196 0.035373487089008795 -0.007053094203477609 0.0035208742535937014 8.01013772795725 3.50226441858452 -19.259537593949236 0.04633172257095605 10.368698632013412 -0.016673413621946676 -5.640180845832102 -15.637609096660922 3.207902937884896 0.049292811797702826 -0.047188031341904836 0.043430078951310035 -0.007751446395352531 4.651408534450855 0.0052999740509691124 12.445957027353506 -8.23944233140251 6.909202525774069 -0.034622436887941484 46.414280553372876 -0.04317931750760258 -4.344855372063268 -14.721641569174604 -3.826996508276752 0.024181193424374692 -0.0496872226710028 0.008064688249062991 0.02982507597677037 -10.785100201632847 -0.023503852138474793 
0.012747930074132574 0.025869571110805102 0.012799830836569569 0.020855899279421122 -0.03733818185617995 0.0028041313529004216 -1.9560025192503532 1.3943418896944508 -1.0220844230834538 -0.8899500314394349 3.7213398015635657 0.34132147531903284 -1.1738329090534891 -1.3710865877667595 -1.005054050486365 0.38461737878131086 0.2713486391028488 -0.773000439271711 0.34507391524417436 11.05640652242703 -1.5271116684061763 0.33932016408056365 -1.0520037497705537 -4.871734767362896 0.9887458639909634 -16.66321279185352 -0.4289371224461174 -2.8486996341111697 1.2816713760274427 -15.107179331369208 73.42273694262036 18.83952404055087 0.7077578142040523 1.7686376411958313 5.942711788639483 44.80986674552643 21.724216469228 -0.11586600032506555 -4.167527052815206 4.5330155563616135 -0.1405457974926037 -1.6200444423369165 -0.019413726873497683 0.036715514829208255 -56.25128538264813 0.04296817332443926 0.03956388734349324 -56.24364023756067 -38.751677945812645 0.0037266486670739685 0.0014271272267616648 -0.033088751114991634 0.017195232274432204 -0.009219862781451536 0.022854998534788715 0.0375843299067221 -0.013088202438973169 -36.66319259525831 0.0042122290584639815 -0.04375569928565755 0.02052549801208527 -0.024836312964972712 0.03756320832172226 -0.025497180881761398 -0.031759942377541456 0.0200461049661756 -19.757886774244092 0.022435254988626904 -0.03977434612164354 0.028554626859233854 -0.005184061646168401 0.04464775158152421 -0.010947959881327424 -0.014663900114015818 -0.036607511428603585 24.060958151500262 0.020236095033236312 0.018532274622091772 28.891486014339318 0.04112625411564973 -0.03518418510031765 28.91097518441474 0.038724975020681486 0.042520981311272465 3.246615474112555 1.0023784016876982 12.940670038136625 -69.24747170400639 28.36872061852449 -5.941341219763671 3.058451131677337 -7.019242836658355 -49.44822987480202 -12.697516031458207 2.365515692807083 -0.21414085998654647 -0.4726945636801819 0.04713634076741041 -8.147019558718807 0.030031324156008322 0.010158675334707509 44.5254261165759 -0.031714885385441115 -0.002136403650444565 44.587560134228546 12.439124722850893 0.04323779430219403 -0.03590001565171015 -0.014864492941572884 -0.019351438530355963 -0.040193805405748066 0.014308487184311415 0.03101227314604789 0.04003370994899641 11.081662674008754 0.0033510810417859437 -0.016884599085578822 0.02568342663505755 -0.029913579294818266 -0.013144450052645824 -0.026875910999887655 0.011013890623546513 0.038506972882764834 4.776942190226056 0.00385960203860646 -0.023013303461367218 -0.012987393256423594 0.026541199902869947 -0.017316144198911216 0.018299528247826886 5.416269788224655e-06 -0.02800626652074385 -5.610369490379563 -0.016140903928871516 -0.0041966706278513555 -6.699834010538824 -0.0029619766980917557 0.022150438581986467 -6.721626357264439 0.02977441038595857 0.016147265436288184 -0.004246063713686544 0.04739458378018064 0.020793544912305964 8.012453030697289 3.512435031728835 -19.21311650530892 0.042239085008471206 10.37605666301395 0.027320941488836518 -5.635978121944918 -15.660680498861927 3.194677395983454 -0.03479152605623308 0.02343546997495518 0.00876239877738846 -0.03288954840412797 4.691173961451045 0.002381549098801776 12.452485431845153 -8.22612348882292 6.855123052535363 -0.023920971359479206 46.379061518449056 0.029403161891935013 -4.279207602320018 -14.730829639341007 -3.828550845531791 0.014963920892394247 -0.020614948318201074 -0.004652538225933464 -0.0034564499910900064 -10.749447926220249 0.012186824757302116 
-0.02297109781684766 -0.00628342015069077 0.022749377807906708 -0.029132246231850685 -0.02935587013755014 0.0022380685305675723 -1.9259916190558424 1.6483533148451521 -0.9962987317445918 -0.9330434141721728 3.7081691999528443 0.3863991820594297 -1.1099634500809998 -1.355839917184235 -0.8448925442887659 0.3014240892077081 0.2961735783870842 -0.7811492689678867 0.2968374281685622 10.949418475025547 -1.4116480810260705 0.32584184344987294 -1.1083847982487118 -4.561855934325827 0.9078362349789929 -16.64539894291073 -0.4414277396848718 -2.647263728834799 1.2132723023227734 -14.929245146894015 73.34388659223595 18.11110266523492 1.0291272047852982 1.645670225460579 6.144907305753965 45.44253616765013 21.636964162907866 -0.11323472274121643 -4.163638178118419 4.545540059896623 -0.09786239111924233 -1.5988561976655284 -0.04400647907595236 0.007239944210505551 -56.2434584812232 0.01787794569360772 0.027949139971637102 -56.25030440361528 -38.75023101564183 0.03625733081514097 -0.028578938133760733 -0.03693088000827432 -0.01791001684473812 -0.017814266498719564 0.0045606028261768175 -0.03090473522411461 -0.019622454484969416 -36.671783318714766 0.016694066599760814 0.010026471086046974 -0.011123584845705121 0.0028616285081252387 -0.01583475977793153 -0.026676059790220145 0.018164308941825778 -0.01620606059360139 -19.766192855333408 -0.032955930768324954 0.012068284249469794 -0.02425692366425926 -0.02298047649923062 0.027260691923923636 0.03359240852658032 -0.047768895652195165 0.039159646898425174 24.03780883707981 -0.0070571104222236615 0.00430230291836086 28.884490628553813 -0.010804078719977845 0.007928540702752424 28.861237227042 0.019597701038467096 0.04130396747283629 3.1619671931369044 1.0169133687724432 12.99353692115506 -68.99430895727637 27.97919693103412 -6.3659093455148 3.1924783899383575 -6.6459071943171475 -50.12080054688943 -12.909828145193986 2.395820317013815 -0.2683428544625068 -0.4492065109852685 0.026589423304819254 -8.091678980556686 0.019054582750867643 -0.016722389257408325 44.60184763864361 0.03000936772954459 0.04256300112045432 44.55607888681188 12.501106378946629 -0.012571991068011957 0.007322296882115458 0.020406927229872925 -0.016175884490522558 -0.010689439617387822 0.004071197392022923 -0.03172502732966267 -0.04867753706749911 11.072115270370622 -0.005379595343032064 0.024867801917506614 0.003468352520474802 0.040783159288443435 -0.047815405646550284 -0.0012005320954549855 0.015795141757383516 -0.011637696165394224 4.7391556700372295 0.022456048121179274 0.017600749502396394 -0.03793685692208586 0.016186166586639957 -0.02561326651439949 0.008358229287406897 -0.048282110361741154 -0.045344590640645194 -5.611522328697854 -0.035305457118253884 0.022099198352951918 -6.714963998239202 0.03708083629127875 0.02145181428252452 -6.712105642948831 -0.011374779093250258 0.01638576377829788 -0.018443335663255702 0.008012868600039387 0.001227531343387967 8.032561369071384 3.514151305756125 -19.250080541242752 -0.0463573927952619 10.379293213865125 0.0534871920507769 -5.665171864529653 -15.639657980745016 3.172074531051826 -0.011145232190520646 0.025570641097309707 -0.020578555760139373 -0.02028727395383107 4.691650729475838 0.024629998955009995 12.4917000587574 -8.24618684933395 6.921602005793968 0.03988557256906574 46.41588733490649 -0.02950651735363988 -4.345541582571987 -14.780822464176127 -3.85252585193049 -0.018640651828449296 0.04798656783963387 -0.032533378431843174 -0.013076167801122581 -10.774738885754468 0.030296773014374268 
